PathFileType	4	(X/Y/Z)	/home/abdul/Desktop/myosuite/custom_workspace/IK/output/S4_12_1.trc
DataRate	CameraRate	NumFrames	NumMarkers	Units	OrigDataRate	OrigDataStartFrame	OrigNumFrames
200.0	200.0	33	3	mm	200.0	283	1130
Frame#	Time	V_Shoulder			V_Elbow			V_Wrist		
		X1	Y1	Z1	X2	Y2	Z2	X3	Y3	Z3

283	1.41	-80.42687396723885	569.5579576470305	272.73173682084297	-143.57493237964553	419.96591015865204	18.4972348866267	-94.46735172324503	202.12378678175747	39.130847759527285
284	1.415	-80.3466230939596	569.4222032862232	272.7457242815301	-143.56695719236828	420.0175833018752	18.39154739344717	-94.43285123757109	202.17430876909663	39.33783087915857
285	1.42	-80.26797088025079	569.2901927007994	272.75909291421914	-143.56139324705757	420.07695661952846	18.283195495640772	-94.39850405391388	202.2374943091317	39.568091064853235
286	1.425	-80.19095541334708	569.1619864266255	272.7718646980457	-143.5581157177109	420.1439132792921	18.17236075528701	-94.36383203559595	202.3137857175779	39.82265485187092
287	1.43	-80.11561433811887	569.0376401504927	272.7840632431909	-143.55699718792192	420.21832434776866	18.05923117904358	-94.32835152101734	202.403630488579	40.102537564701194
288	1.435	-80.0419847766375	568.917204685741	272.7957137356698	-143.55790786232149	420.3000486399201	17.94400119210036	-94.29157477820156	202.50748031125784	40.40874035510893
289	1.44	-79.97010324580604	568.8007259653416	272.8068428764143	-143.56071578305387	420.38893261283727	17.826871585402333	-94.25301150181681	202.62579007217886	40.74224725772201
290	1.445	-79.90000557329843	568.6882450521398	272.8174788148151	-143.56528705106828	420.4848103054095	17.708049434928405	-94.21217034701944	202.75901684653613	41.1040222727024
291	1.45	-79.83172681206554	568.5797981658944	272.8276510769094	-143.57148605202315	420.587503325295	17.587747991981967	-94.16856049424975	202.90761888088673	41.49500648498017
292	1.455	-79.7653011536806	568.4754167266982	272.8373904884234	-143.57917568661009	420.6968208844073	17.466186543629092	-94.12169323891456	203.07205457024384	41.91611522942708
293	1.46	-79.70076184080999	568.3751274143006	272.84672909290026	-143.58821760511304	420.8125598839398	17.343590242609544	-94.07108359971608	203.25278143232416	42.368235311200365
294	1.465	-79.63814107910684	568.2789522428083	272.855700065164	-143.5984724460184	420.9345050497459	17.220189906242762	-94.01625193923664	203.45025508171153	42.85222229030015
295	1.47	-79.57746994883723	568.1869086501896	272.8643376203909	-143.60980007848792	421.0624291186787	17.096221784053792	-93.95672559026323	203.66492820665403	43.36889783915457
296	1.475	-79.5187783165572	568.0990096019564	272.87267691907675	-143.62205984849743	421.19609307627184	16.971927294050523	-93.89204048123582	203.89724955115332	43.91904718177766
297	1.48	-79.46209474716859	568.0152637083632	272.8807539682071	-143.63511082843073	421.33524644591	16.847552727791978	-93.82174275413217	204.1476629049369	44.50341662273614
298	1.485	-79.4074464166884	567.935675354419	272.888605518955	-143.64881206989818	421.4796276294035	16.723348924595502	-93.74539036805751	204.4166061038223	45.1227111738157
299	1.49	-79.35485902607228	567.8602448419688	272.8962689612425	-143.66302285952838	421.6289642986347	16.59957091543676	-93.66255468179378	204.7045100428918	45.777592285895366
300	1.495	-79.3043567164371	567.7889685430746	272.9037822155201	-143.67760297745374	421.7829738376984	16.47647753729838	-93.57282200857941	205.01179770479666	46.46867569312413
301	1.5	-79.25596198603075	567.7218390638916	272.9111836221263	-143.69241295818108	421.94136383470754	16.35433101891939	-93.47579513643696	205.33888320539802	47.19652937604829
302	1.505	-79.20969560929797	567.658845418207	272.9185118286042	-143.70731435350575	422.10383262217977	16.233396539086186	-93.37109480744493	205.6861708588375	47.96167164986433
303	1.51	-79.16557655839128	567.5999732097891	272.9258056753575	-143.7221699970939	422.27006986467137	16.11394175878536	-93.25836114945986	206.0540542640045	48.76456938347382
304	1.515	-79.12362192747412	567.5452048226725	272.93310408003856	-143.7368442703204	422.439757192068	15.99623632870769	-93.13725505393688	206.44291541423823	49.60563635449639
305	1.52	-79.0838468601594	567.4945196184825	272.940445921066	-143.75120336891462	422.6125688766947	15.880551373750006	-93.00745949367072	206.85312383196828	50.48523174485784
306	1.525	-79.04626448042204	567.4478941398962	272.9478699206723	-143.76511556992898	422.78817255216086	15.767158956305728	-92.86868077448466	207.28503572985773	51.403658781016716
307	1.53	-79.01088582731707	567.4053023193163	272.9554145278873	-143.7784514985103	422.9662299716148	15.656331520265628	-92.72064971513176	207.73899319987441	52.36116352232716
308	1.535	-78.97771979382645	567.3667156918322	272.9631178018614	-143.79108439391777	423.14639780285034	15.548341317766187	-92.56312274993945	208.21532343157116	53.3579338004623
309	1.54	-78.9467730701482	567.332103611532	272.97101729593277	-143.80289037420073	423.32832845748567	15.443459820824001	-92.39588294902654	208.71433796071472	54.39409831224437
310	1.545	-78.91805009172957	567.3014334702311	272.9791499428406	-143.81374869891712	423.51167095121957	15.341957120080133	-92.21874095124642	209.23633194925867	55.469725867649096
311	1.55	-78.89155299233346	567.274670917676	272.98755194148043	-143.82354202924716	423.69607179196885	15.244101312948416	-92.03153580536423	209.78158349751595	56.584824794175134
312	1.555	-78.86728156241266	567.2517800822911	272.9962586455944	-143.83215668483086	423.8811758925074	15.150157883516185	-91.83413571535462	210.35035298924748	57.73934249819876
313	1.56	-78.84523321305073	567.2327237915401	273.00530445477824	-143.8394828966367	424.0666275040537	15.0603890765851	-91.62643868611013	210.9428824702474	58.93316518337217
314	1.565	-78.82540294571146	567.2174637909771	273.0147227081823	-143.84541505515082	424.25207116709976	14.97505326826403	-91.40837306627688	211.5593950608752	60.166117725574146
315	1.57	-78.80778332802014	567.2059609610835	273.02454558126857	-143.84985195316	424.43715267564085	14.89440433553558	-91.17989798537958	212.20009440285776	61.437963703386544
